<svg xmlns="http://www.w3.org/2000/svg" xmlns:svg="http://www.w3.org/2000/svg" xmlns:xlink="http://www.w3.org/1999/xlink" version="1.0" height="543.6500579118729pt" width="938.9769191741943pt" viewBox="178 387 946.9769191741943 549.6500579118729" ><defs><style type="text/css">
            @font-face {
                font-family: 'noto_regular';
                src: url('https://app.creately.com/diagram/assets/fonts/noto/noto-regular.woff') format('woff'),
                     url('https://app.creately.com/diagram/assets/fonts/noto/noto-regular.woff2') format('woff2');
                font-weight: normal;
                font-style: normal;
            }
        p {
            margin: 0;
        }
        </style></defs><defs><style>
            span{ display: inline-block; }
        </style></defs><g id="11ps18aqv2"><g transform="translate(355 525)"><rect x="0" y="0" width="100" height="50" fill="rgba(255,255,255,1)" stroke="#75c19b" stroke-width="1.5" stroke-linecap="round" stroke-linejoin="round"/></g><g transform="translate(373.5, 540.5) rotate(0, 31.5, 9.5)" width="63" height="19"><text text-decoration="none" x="2" fill="rgb(75, 75, 75)" font-size="10pt" font-family="Lato"  y="17">Customer</text><text text-decoration="none" x="61" fill="#4b4b4b" font-size="10pt" font-family="noto_regular"  y="17"></text></g></g><g id="1iliyc0z3z"><g transform="translate(355 805)"><rect x="0" y="0" width="100" height="50" fill="rgba(255,255,255,1)" stroke="#75c19b" stroke-width="1.5" stroke-linecap="round" stroke-linejoin="round"/></g><g transform="translate(387, 820.5) rotate(0, 18, 9.5)" width="36" height="19"><text text-decoration="none" x="0.5" fill="rgb(75, 75, 75)" font-size="10pt" font-family="Lato"  y="17">Order</text><text text-decoration="none" x="35.5" fill="#4b4b4b" font-size="10pt" font-family="noto_regular"  y="17"></text></g></g><g id="143ql0wjgt"><g transform="translate(470 525)"><rect x="0" y="0" width="100" height="50" fill="rgba(255,255,255,1)" stroke="#75c19b" stroke-width="1.5" stroke-linecap="round" stroke-linejoin="round"/></g><g transform="translate(493.5, 540.5) rotate(0, 26.5, 9.5)" width="53" height="19"><text text-decoration="none" x="2" fill="rgb(75, 75, 75)" font-size="10pt" font-family="Lato"  y="17">Supplier</text><text text-decoration="none" x="51" fill="#4b4b4b" font-size="10pt" font-family="noto_regular"  y="17"></text></g></g><g id="2mduchmike"><g transform="translate(885 805)"><rect x="0" y="0" width="100" height="50" fill="rgba(255,255,255,1)" stroke="#75c19b" stroke-width="1.5" stroke-linecap="round" stroke-linejoin="round"/></g><g transform="translate(910.5, 820.5) rotate(0, 24.5, 9.5)" width="49" height="19"><text text-decoration="none" x="0.5" fill="rgb(75, 75, 75)" font-size="10pt" font-family="Lato"  y="17">Product</text><text text-decoration="none" x="48.5" fill="#4b4b4b" font-size="10pt" font-family="noto_regular"  y="17"></text></g></g><g id="d1oh2yz96y"><g transform="translate(885 525)"><rect x="0" y="0" width="100" height="50" fill="rgba(255,255,255,1)" stroke="#75c19b" stroke-width="1.5" stroke-linecap="round" stroke-linejoin="round"/></g><g transform="translate(910.5, 540.5) rotate(0, 24.5, 9.5)" width="49" height="19"><text text-decoration="none" x="1.5" fill="rgb(75, 75, 75)" font-size="10pt" font-family="Lato"  y="17">Shipper</text><text text-decoration="none" x="47.5" fill="#4b4b4b" font-size="10pt" font-family="noto_regular"  y="17"></text></g></g><g id="7136nazxey"><g transform="translate(300 390)"><rect x="0" y="0" width="231.99999332427979" height="65.99996948242188" fill="rgba(255,255,255,0.01)" stroke="rgba(255,255,255,0.01)" stroke-width="NaN" stroke-linecap="round" stroke-linejoin="round"/></g><g transform="translate(309.9999966621399, 410.99998474121094) rotate(0, 106, 12)" width="212" height="24"><text text-decoration="none" x="8.5" fill="rgb(0, 0, 0)" font-size="15pt" font-family="Lato"  y="21">Amazon&#160;</text><text text-decoration="none" x="89.5" fill="rgb(0, 0, 0)" font-size="15pt" font-family="Lato"  y="21">E-R&#160;</text><text text-decoration="none" x="123.5" fill="rgb(0, 0, 0)" font-size="15pt" font-family="Lato"  y="21">Diagram</text><text text-decoration="none" x="203.5" fill="#4b4b4b" font-size="10pt" font-family="noto_regular"  y="21"></text></g></g><g id="2m3zxja48e"><g transform="translate(360 665)"><path d="M 85.00000655651093,17.500001192092896 L 42.50000327825546,35.00000238418579 L 0,17.500001192092896 L 42.50000327825546,0 L 85.00000655651093,17.500001192092896 L 85.00000655651093,17.500001192092896 Z" fill="rgba(255,255,255,1)" stroke="#75c19b" stroke-width="1.5" stroke-linecap="round" stroke-linejoin="round"/></g><g transform="translate(362.50000327825546, 673.0000011920929) rotate(0, 40, 9.5)" width="80" height="19"><text text-decoration="none" x="3" fill="rgb(75, 75, 75)" font-size="10pt" font-family="Lato"  y="17">Relationship</text><text text-decoration="none" x="77" fill="#4b4b4b" font-size="10pt" font-family="noto_regular"  y="17"></text></g></g><g id="2madigybz6"><mask id="33ec2" x="392" y="562" width="26" height="116" maskUnits="userSpaceOnUse"><rect x="392" y="562" width="26" height="116" fill="white" /><rect x="381.5" y="618.0882352941177" width="47" height="25" fill="black" /><rect x="381.5" y="618.0882352941177" width="47" height="25" fill="black" /></mask><g mask="url(#33ec2)"><path d="M 405,575 L 405,665" fill="none" stroke="#a0a0a0" stroke-width="1.5" stroke-linecap="round" stroke-linejoin="round"/></g><g transform="translate(384.5, 621.0882352941177)" width="41" height="19"><text text-decoration="none" x="0.5" fill="rgb(0, 0, 0)" font-size="9pt" font-family="Lato"  y="17">Makes&#160;</text><text text-decoration="none" x="40.5" fill="#4b4b4b" font-size="10pt" font-family="noto_regular"  y="17"></text></g><g transform="translate(384.5, 621.0882352941177)" width="41" height="19"><text text-decoration="none" x="0.5" fill="rgb(0, 0, 0)" font-size="9pt" font-family="Lato"  y="17">Makes&#160;</text><text text-decoration="none" x="40.5" fill="#4b4b4b" font-size="10pt" font-family="noto_regular"  y="17"></text></g></g><g id="1j544idrz2"><mask id="9f429" x="392" y="687" width="26" height="131" maskUnits="userSpaceOnUse"><rect x="392" y="687" width="26" height="131" fill="white" /><rect x="375.5" y="740" width="59" height="25" fill="black" /><rect x="375.5" y="740" width="59" height="25" fill="black" /></mask><g mask="url(#9f429)"><path d="M 405,805 L 405,700" fill="none" stroke="#a0a0a0" stroke-width="1.5" stroke-linecap="round" stroke-linejoin="round"/></g><g transform="translate(378.5, 743)" width="53" height="19"><text text-decoration="none" x="1" fill="rgb(0, 0, 0)" font-size="9pt" font-family="Lato"  y="17">Made_By</text><text text-decoration="none" x="52" fill="#4b4b4b" font-size="10pt" font-family="noto_regular"  y="17"></text></g><g transform="translate(378.5, 743)" width="53" height="19"><text text-decoration="none" x="1" fill="rgb(0, 0, 0)" font-size="9pt" font-family="Lato"  y="17">Made_By</text><text text-decoration="none" x="52" fill="#4b4b4b" font-size="10pt" font-family="noto_regular"  y="17"></text></g></g><g id="bjjz6nt9e9"><g transform="translate(625 810)"><path d="M 84.9999988079071,17.500001192092896 L 42.49999940395355,35.00000238418579 L 0,17.500001192092896 L 42.49999940395355,0 L 84.9999988079071,17.500001192092896 L 84.9999988079071,17.500001192092896 Z" fill="rgba(255,255,255,1)" stroke="#75c19b" stroke-width="1.5" stroke-linecap="round" stroke-linejoin="round"/></g><g transform="translate(627.4999994039536, 818.0000011920929) rotate(0, 40, 9.5)" width="80" height="19"><text text-decoration="none" x="3" fill="rgb(75, 75, 75)" font-size="10pt" font-family="Lato"  y="17">Relationship</text><text text-decoration="none" x="77" fill="#4b4b4b" font-size="10pt" font-family="noto_regular"  y="17"></text></g></g><g id="ptbhnstbvv"><mask id="4fa6a" x="442" y="817" width="196" height="26" maskUnits="userSpaceOnUse"><rect x="442" y="817" width="196" height="26" fill="white" /><rect x="511" y="817.5" width="58" height="25" fill="black" /><rect x="511" y="817.5" width="58" height="25" fill="black" /></mask><g mask="url(#4fa6a)"><path d="M 455,830 L 625,830" fill="none" stroke="#a0a0a0" stroke-width="1.5" stroke-linecap="round" stroke-linejoin="round"/></g><g transform="translate(514, 820.5)" width="52" height="19"><text text-decoration="none" x="1" fill="rgb(0, 0, 0)" font-size="9pt" font-family="Lato"  y="17">Calls_For</text><text text-decoration="none" x="51" fill="#4b4b4b" font-size="10pt" font-family="noto_regular"  y="17"></text></g><g transform="translate(514, 820.5)" width="52" height="19"><text text-decoration="none" x="1" fill="rgb(0, 0, 0)" font-size="9pt" font-family="Lato"  y="17">Calls_For</text><text text-decoration="none" x="51" fill="#4b4b4b" font-size="10pt" font-family="noto_regular"  y="17"></text></g></g><g id="56p1n2h25p"><mask id="b368a" x="697" y="817" width="201" height="26" maskUnits="userSpaceOnUse"><rect x="697" y="817" width="201" height="26" fill="white" /><rect x="766" y="817.5" width="63" height="25" fill="black" /><rect x="766" y="817.5" width="63" height="25" fill="black" /></mask><g mask="url(#b368a)"><path d="M 710,830 L 885,830" fill="none" stroke="#a0a0a0" stroke-width="1.5" stroke-linecap="round" stroke-linejoin="round"/></g><g transform="translate(769, 820.5)" width="57" height="19"><text text-decoration="none" x="1.5" fill="rgb(0, 0, 0)" font-size="9pt" font-family="Lato"  y="17">Called_By</text><text text-decoration="none" x="55.5" fill="#4b4b4b" font-size="10pt" font-family="noto_regular"  y="17"></text></g><g transform="translate(769, 820.5)" width="57" height="19"><text text-decoration="none" x="1.5" fill="rgb(0, 0, 0)" font-size="9pt" font-family="Lato"  y="17">Called_By</text><text text-decoration="none" x="55.5" fill="#4b4b4b" font-size="10pt" font-family="noto_regular"  y="17"></text></g></g><g id="2iwh0rjrug"><g transform="translate(895 675)"><path d="M 84.9999988079071,17.500001192092896 L 42.49999940395355,35.00000238418579 L 0,17.500001192092896 L 42.49999940395355,0 L 84.9999988079071,17.500001192092896 L 84.9999988079071,17.500001192092896 Z" fill="rgba(255,255,255,1)" stroke="#75c19b" stroke-width="1.5" stroke-linecap="round" stroke-linejoin="round"/></g><g transform="translate(897.4999994039536, 683.0000011920929) rotate(0, 40, 9.5)" width="80" height="19"><text text-decoration="none" x="3" fill="rgb(75, 75, 75)" font-size="10pt" font-family="Lato"  y="17">Relationship</text><text text-decoration="none" x="77" fill="#4b4b4b" font-size="10pt" font-family="noto_regular"  y="17"></text></g></g><g id="1lqjs0zegj"><g transform="translate(660 530)"><path d="M 84.9999988079071,17.500001192092896 L 42.49999940395355,35.00000238418579 L 0,17.500001192092896 L 42.49999940395355,0 L 84.9999988079071,17.500001192092896 L 84.9999988079071,17.500001192092896 Z" fill="rgba(255,255,255,1)" stroke="#75c19b" stroke-width="1.5" stroke-linecap="round" stroke-linejoin="round"/></g><g transform="translate(662.4999994039536, 538.0000011920929) rotate(0, 40, 9.5)" width="80" height="19"><text text-decoration="none" x="3" fill="rgb(75, 75, 75)" font-size="10pt" font-family="Lato"  y="17">Relationship</text><text text-decoration="none" x="77" fill="#4b4b4b" font-size="10pt" font-family="noto_regular"  y="17"></text></g></g><g id="3ug9yimzhp"><mask id="a137a" x="922" y="697" width="26" height="121" maskUnits="userSpaceOnUse"><rect x="922" y="697" width="26" height="121" fill="white" /><rect x="888" y="745" width="94" height="25" fill="black" /><rect x="888" y="745" width="94" height="25" fill="black" /></mask><g mask="url(#a137a)"><path d="M 935,805 L 935,710" fill="none" stroke="#a0a0a0" stroke-width="1.5" stroke-linecap="round" stroke-linejoin="round"/></g><g transform="translate(891, 748)" width="88" height="19"><text text-decoration="none" x="3.5" fill="rgb(0, 0, 0)" font-size="9pt" font-family="Lato"  y="17">Distributed_By</text><text text-decoration="none" x="84.5" fill="#4b4b4b" font-size="10pt" font-family="noto_regular"  y="17"></text></g><g transform="translate(891, 748)" width="88" height="19"><text text-decoration="none" x="3.5" fill="rgb(0, 0, 0)" font-size="9pt" font-family="Lato"  y="17">Distributed_By</text><text text-decoration="none" x="84.5" fill="#4b4b4b" font-size="10pt" font-family="noto_regular"  y="17"></text></g></g><g id="ze6p7jbdbt"><mask id="18f87" x="922" y="562" width="26" height="126" maskUnits="userSpaceOnUse"><rect x="922" y="562" width="26" height="126" fill="white" /><rect x="899.5" y="612.5" width="71" height="25" fill="black" /><rect x="899.5" y="612.5" width="71" height="25" fill="black" /></mask><g mask="url(#18f87)"><path d="M 935,575 L 935,675" fill="none" stroke="#a0a0a0" stroke-width="1.5" stroke-linecap="round" stroke-linejoin="round"/></g><g transform="translate(902.5, 615.5)" width="65" height="19"><text text-decoration="none" x="2" fill="rgb(0, 0, 0)" font-size="9pt" font-family="Lato"  y="17">Distributes</text><text text-decoration="none" x="63" fill="#4b4b4b" font-size="10pt" font-family="noto_regular"  y="17"></text></g><g transform="translate(902.5, 615.5)" width="65" height="19"><text text-decoration="none" x="2" fill="rgb(0, 0, 0)" font-size="9pt" font-family="Lato"  y="17">Distributes</text><text text-decoration="none" x="63" fill="#4b4b4b" font-size="10pt" font-family="noto_regular"  y="17"></text></g></g><g id="gq0licisoq"><mask id="1dab7" x="732" y="537" width="166" height="26" maskUnits="userSpaceOnUse"><rect x="732" y="537" width="166" height="26" fill="white" /><rect x="775" y="537.5" width="80" height="25" fill="black" /><rect x="775" y="537.5" width="80" height="25" fill="black" /></mask><g mask="url(#1dab7)"><path d="M 885,550 L 745,550" fill="none" stroke="#a0a0a0" stroke-width="1.5" stroke-linecap="round" stroke-linejoin="round"/></g><g transform="translate(778, 540.5)" width="74" height="19"><text text-decoration="none" x="3.5" fill="rgb(0, 0, 0)" font-size="9pt" font-family="Lato"  y="17">Supplied_By</text><text text-decoration="none" x="70.5" fill="#4b4b4b" font-size="10pt" font-family="noto_regular"  y="17"></text></g><g transform="translate(778, 540.5)" width="74" height="19"><text text-decoration="none" x="3.5" fill="rgb(0, 0, 0)" font-size="9pt" font-family="Lato"  y="17">Supplied_By</text><text text-decoration="none" x="70.5" fill="#4b4b4b" font-size="10pt" font-family="noto_regular"  y="17"></text></g></g><g id="2pp40efvm9"><mask id="8508f" x="557" y="537" width="116" height="26" maskUnits="userSpaceOnUse"><rect x="557" y="537" width="116" height="26" fill="white" /><rect x="586.5" y="537.5" width="57" height="25" fill="black" /><rect x="586.5" y="537.5" width="57" height="25" fill="black" /></mask><g mask="url(#8508f)"><path d="M 660,550 L 570,550" fill="none" stroke="#a0a0a0" stroke-width="1.5" stroke-linecap="round" stroke-linejoin="round"/></g><g transform="translate(589.5, 540.5)" width="51" height="19"><text text-decoration="none" x="2" fill="rgb(0, 0, 0)" font-size="9pt" font-family="Lato"  y="17">Supplies</text><text text-decoration="none" x="49" fill="#4b4b4b" font-size="10pt" font-family="noto_regular"  y="17"></text></g><g transform="translate(589.5, 540.5)" width="51" height="19"><text text-decoration="none" x="2" fill="rgb(0, 0, 0)" font-size="9pt" font-family="Lato"  y="17">Supplies</text><text text-decoration="none" x="49" fill="#4b4b4b" font-size="10pt" font-family="noto_regular"  y="17"></text></g></g><g id="7eyc88waj1"><g transform="translate(235 560)"><ellipse cx="37.5" cy="17.500001192092896" rx="37.5" ry="17.500001192092896" fill="rgba(255,255,255,1)" stroke="#f6902a" stroke-width="1.5" stroke-linecap="round" stroke-linejoin="round"/></g><g transform="translate(239.5, 568.0000011920929) rotate(0, 33, 9.5)" width="66" height="19"><text text-decoration="underline" x="3.5" fill="rgb(75, 75, 75)" font-size="10pt" font-family="Lato"  y="17">BillingInfo</text><text text-decoration="none" x="62.5" fill="#4b4b4b" font-size="10pt" font-family="noto_regular"  y="17"></text></g></g><g id="1r8f0i8vuc"><g><path d="M 310,580 L 355,550" fill="none" stroke="#a0a0a0" stroke-width="1.5" stroke-linecap="round" stroke-linejoin="round"/></g></g><g id="25a5hgp183"><g transform="translate(285 490)"><ellipse cx="27.500000596046448" cy="9.999996423721313" rx="27.500000596046448" ry="9.999996423721313" fill="rgba(255,255,255,1)" stroke="#f6902a" stroke-width="1.5" stroke-linecap="round" stroke-linejoin="round"/></g><g transform="translate(293.00000059604645, 490.4999964237213) rotate(0, 19.5, 9.5)" width="39" height="19"><text text-decoration="none" x="1.5" fill="rgb(75, 75, 75)" font-size="10pt" font-family="Lato"  y="17">Name</text><text text-decoration="none" x="37.5" fill="#4b4b4b" font-size="10pt" font-family="noto_regular"  y="17"></text></g></g><g id="mc1ai1e08p"><g><path d="M 340,500 L 405,525" fill="none" stroke="#a0a0a0" stroke-width="1.5" stroke-linecap="round" stroke-linejoin="round"/></g></g><g id="4jrz0gen2n"><g transform="translate(183 475)"><ellipse cx="27.500000596046448" cy="9.999996423721313" rx="27.500000596046448" ry="9.999996423721313" fill="rgba(255,255,255,1)" stroke="#f6902a" stroke-width="1.5" stroke-linecap="round" stroke-linejoin="round"/></g><g transform="translate(197.00000059604645, 475.4999964237213) rotate(0, 13.5, 9.5)" width="27" height="19"><text text-decoration="none" x="0.5" fill="rgb(75, 75, 75)" font-size="10pt" font-family="Lato"  y="17">First</text><text text-decoration="none" x="26.5" fill="#4b4b4b" font-size="10pt" font-family="noto_regular"  y="17"></text></g></g><g id="fr4mnwea1b"><g transform="translate(237 442)"><ellipse cx="27.500000596046448" cy="9.999996423721313" rx="27.500000596046448" ry="9.999996423721313" fill="rgba(255,255,255,1)" stroke="#f6902a" stroke-width="1.5" stroke-linecap="round" stroke-linejoin="round"/></g><g transform="translate(251.00000059604645, 442.4999964237213) rotate(0, 13.5, 9.5)" width="27" height="19"><text text-decoration="none" x="1" fill="rgb(75, 75, 75)" font-size="10pt" font-family="Lato"  y="17">Last</text><text text-decoration="none" x="26" fill="#4b4b4b" font-size="10pt" font-family="noto_regular"  y="17"></text></g></g><g id="2eyifjiwk9"><g><path d="M 282,462 L 295,490" fill="none" stroke="#a0a0a0" stroke-width="1.5" stroke-linecap="round" stroke-linejoin="round"/></g></g><g id="19572fxq34"><g><path d="M 238,485 L 295,490" fill="none" stroke="#a0a0a0" stroke-width="1.5" stroke-linecap="round" stroke-linejoin="round"/></g></g><g id="2l2y11lyta"><g transform="translate(230 520)"><ellipse cx="27.500000596046448" cy="9.999996423721313" rx="27.500000596046448" ry="9.999996423721313" fill="rgba(255,255,255,1)" stroke="#f6902a" stroke-width="1.5" stroke-linecap="round" stroke-linejoin="round"/></g><g transform="translate(231.50000059604645, 520.4999964237213) rotate(0, 26, 9.5)" width="52" height="19"><text text-decoration="none" x="2" fill="rgb(75, 75, 75)" font-size="10pt" font-family="Lato"  y="17">Address</text><text text-decoration="none" x="50" fill="#4b4b4b" font-size="10pt" font-family="noto_regular"  y="17"></text></g></g><g id="1tvyxkawfm"><g><path d="M 285,530 L 355,550" fill="none" stroke="#a0a0a0" stroke-width="1.5" stroke-linecap="round" stroke-linejoin="round"/></g></g><g id="1rhio2uzwh"><g transform="translate(531 601)"><ellipse cx="27.500000596046448" cy="9.999996423721313" rx="27.500000596046448" ry="9.999996423721313" fill="rgba(255,255,255,1)" stroke="#f6902a" stroke-width="1.5" stroke-linecap="round" stroke-linejoin="round"/></g><g transform="translate(539.0000005960464, 601.4999964237213) rotate(0, 19.5, 9.5)" width="39" height="19"><text text-decoration="none" x="1.5" fill="rgb(75, 75, 75)" font-size="10pt" font-family="Lato"  y="17">Name</text><text text-decoration="none" x="37.5" fill="#4b4b4b" font-size="10pt" font-family="noto_regular"  y="17"></text></g></g><g id="l7e3fxp9x9"><g><path d="M 541,601 L 520,575" fill="none" stroke="#a0a0a0" stroke-width="1.5" stroke-linecap="round" stroke-linejoin="round"/></g></g><g id="3s3j081z40"><g><path d="M 525,505 L 520,525" fill="none" stroke="#a0a0a0" stroke-width="1.5" stroke-linecap="round" stroke-linejoin="round"/></g></g><g id="5w2qdtdjlq"><g transform="translate(485 470)"><ellipse cx="37.5" cy="17.500001192092896" rx="37.5" ry="17.500001192092896" fill="rgba(255,255,255,1)" stroke="#f6902a" stroke-width="1.5" stroke-linecap="round" stroke-linejoin="round"/></g><g transform="translate(497.5, 478.0000011920929) rotate(0, 25, 9.5)" width="50" height="19"><text text-decoration="underline" x="1.5" fill="rgb(75, 75, 75)" font-size="10pt" font-family="Lato"  y="17">Contact</text><text text-decoration="none" x="48.5" fill="#4b4b4b" font-size="10pt" font-family="noto_regular"  y="17"></text></g></g><g id="1zsu92aw76"><g transform="translate(610 885)"><ellipse cx="27.500000596046448" cy="9.999996423721313" rx="27.500000596046448" ry="9.999996423721313" fill="rgba(255,255,255,1)" stroke="#f6902a" stroke-width="1.5" stroke-linecap="round" stroke-linejoin="round"/></g><g transform="translate(612.0000005960464, 885.4999964237213) rotate(0, 25.5, 9.5)" width="51" height="19"><text text-decoration="none" x="1" fill="rgb(75, 75, 75)" font-size="10pt" font-family="Lato"  y="17">Amount</text><text text-decoration="none" x="50" fill="#4b4b4b" font-size="10pt" font-family="noto_regular"  y="17"></text></g></g><g id="1ww35ges4l"><g transform="translate(900 895)"><ellipse cx="37.5" cy="17.500001192092896" rx="37.5" ry="17.500001192092896" fill="rgba(255,255,255,1)" stroke="#f6902a" stroke-width="1.5" stroke-linecap="round" stroke-linejoin="round"/></g><g transform="translate(915.5, 903.0000011920929) rotate(0, 22, 9.5)" width="44" height="19"><text text-decoration="underline" x="1.5" fill="rgb(75, 75, 75)" font-size="10pt" font-family="Lato"  y="17">ItemID</text><text text-decoration="none" x="42.5" fill="#4b4b4b" font-size="10pt" font-family="noto_regular"  y="17"></text></g></g><g id="glm41g48n1"><g><path d="M 940,895 L 935,855" fill="none" stroke="#a0a0a0" stroke-width="1.5" stroke-linecap="round" stroke-linejoin="round"/></g></g><g id="a75zuq3awm"><g><path d="M 655,885 L 665,845" fill="none" stroke="#f6902a" stroke-width="1.5" stroke-linecap="round" stroke-linejoin="round"/></g></g><g id="186le4bvlo"><g transform="translate(265 860)"><ellipse cx="37.5" cy="17.500001192092896" rx="37.5" ry="17.500001192092896" fill="rgba(255,255,255,1)" stroke="#f6902a" stroke-width="1.5" stroke-linecap="round" stroke-linejoin="round"/></g><g transform="translate(272.5, 868.0000011920929) rotate(0, 30, 9.5)" width="60" height="19"><text text-decoration="underline" x="1.5" fill="rgb(75, 75, 75)" font-size="10pt" font-family="Lato"  y="17">TotalCost</text><text text-decoration="none" x="58.5" fill="#4b4b4b" font-size="10pt" font-family="noto_regular"  y="17"></text></g></g><g id="21oghrmr4p"><g><path d="M 325,865 L 355,830" fill="none" stroke="#a0a0a0" stroke-width="1.5" stroke-linecap="round" stroke-linejoin="round"/></g></g><g id="1swmb93q0z"><g transform="translate(290 700)"><ellipse cx="27.500000596046448" cy="9.999996423721313" rx="27.500000596046448" ry="9.999996423721313" fill="rgba(255,255,255,1)" stroke="#f6902a" stroke-width="1.5" stroke-linecap="round" stroke-linejoin="round"/></g><g transform="translate(292.00000059604645, 700.4999964237213) rotate(0, 25.5, 9.5)" width="51" height="19"><text text-decoration="none" x="1" fill="rgb(75, 75, 75)" font-size="10pt" font-family="Lato"  y="17">Amount</text><text text-decoration="none" x="50" fill="#4b4b4b" font-size="10pt" font-family="noto_regular"  y="17"></text></g></g><g id="2fpl03h80f"><g><path d="M 345,710 L 360,685" fill="none" stroke="#f6902a" stroke-width="1.5" stroke-linecap="round" stroke-linejoin="round"/></g></g><g id="ak3tcvii4m"><g transform="translate(1015 540)"><ellipse cx="37.5" cy="17.500001192092896" rx="37.5" ry="17.500001192092896" fill="rgba(255,255,255,1)" stroke="#f6902a" stroke-width="1.5" stroke-linecap="round" stroke-linejoin="round"/></g><g transform="translate(1027.5, 548.0000011920929) rotate(0, 25, 9.5)" width="50" height="19"><text text-decoration="underline" x="1.5" fill="rgb(75, 75, 75)" font-size="10pt" font-family="Lato"  y="17">Contact</text><text text-decoration="none" x="48.5" fill="#4b4b4b" font-size="10pt" font-family="noto_regular"  y="17"></text></g></g><g id="19hajuhedl"><g><path d="M 1015,560 L 985,550" fill="none" stroke="#a0a0a0" stroke-width="1.5" stroke-linecap="round" stroke-linejoin="round"/></g></g><g id="1zt7gs8max"><g transform="translate(575 635)"><ellipse cx="39.48737978935242" cy="19.84100341796875" rx="39.48737978935242" ry="19.84100341796875" fill="rgba(255,255,255,1)" stroke="#f6902a" stroke-width="1.5" stroke-linecap="round" stroke-linejoin="round"/></g><g transform="translate(578.4873797893524, 645.3410034179688) rotate(0, 36, 9.5)" width="72" height="19"><text text-decoration="none" x="3.5" fill="rgb(75, 75, 75)" font-size="10pt" font-family="Lato"  y="17">BusinessID</text><text text-decoration="none" x="68.5" fill="#4b4b4b" font-size="10pt" font-family="noto_regular"  y="17"></text></g></g><g id="2m2m8zintn"><g><path d="M 590,640 L 576,621" fill="none" stroke="#a0a0a0" stroke-width="1.5" stroke-linecap="round" stroke-linejoin="round"/></g></g><g id="1f4aasx5t6"><g transform="translate(590 470)"><ellipse cx="27.500000596046448" cy="9.999996423721313" rx="27.500000596046448" ry="9.999996423721313" fill="rgba(255,255,255,1)" stroke="#f6902a" stroke-width="1.5" stroke-linecap="round" stroke-linejoin="round"/></g><g transform="translate(591.5000005960464, 470.4999964237213) rotate(0, 26, 9.5)" width="52" height="19"><text text-decoration="none" x="2" fill="rgb(75, 75, 75)" font-size="10pt" font-family="Lato"  y="17">Address</text><text text-decoration="none" x="50" fill="#4b4b4b" font-size="10pt" font-family="noto_regular"  y="17"></text></g></g><g id="b2lio4ulbj"><g><path d="M 560,490 L 590,480" fill="none" stroke="#a0a0a0" stroke-width="1.5" stroke-linecap="round" stroke-linejoin="round"/></g></g><g id="19c3s0t7rz"><g transform="translate(740 495)"><ellipse cx="27.500000596046448" cy="9.999996423721313" rx="27.500000596046448" ry="9.999996423721313" fill="rgba(255,255,255,1)" stroke="#f6902a" stroke-width="1.5" stroke-linecap="round" stroke-linejoin="round"/></g><g transform="translate(742.0000005960464, 495.4999964237213) rotate(0, 25.5, 9.5)" width="51" height="19"><text text-decoration="none" x="1" fill="rgb(75, 75, 75)" font-size="10pt" font-family="Lato"  y="17">Amount</text><text text-decoration="none" x="50" fill="#4b4b4b" font-size="10pt" font-family="noto_regular"  y="17"></text></g></g><g id="269gfm977r"><g><path d="M 740,505 L 700,530" fill="none" stroke="#f6902a" stroke-width="1.5" stroke-linecap="round" stroke-linejoin="round"/></g></g><g id="1udq013r8s"><g transform="translate(720 590)"><ellipse cx="30.9881329536438" cy="21.825028955936432" rx="30.9881329536438" ry="21.825028955936432" fill="rgba(255,255,255,1)" stroke="#f6902a" stroke-width="1.5" stroke-linecap="round" stroke-linejoin="round"/></g><g transform="translate(721.4881329536438, 602.3250289559364) rotate(0, 29.5, 9.5)" width="59" height="19"><text text-decoration="none" x="2.5" fill="rgb(75, 75, 75)" font-size="10pt" font-family="Lato"  y="17">ShipDate</text><text text-decoration="none" x="56.5" fill="#4b4b4b" font-size="10pt" font-family="noto_regular"  y="17"></text></g></g><g id="2nenbw1s1y"><g><path d="M 730,595 L 700,565" fill="none" stroke="#f6902a" stroke-width="1.5" stroke-linecap="round" stroke-linejoin="round"/></g></g><g id="1mcztsqp0r"><g transform="translate(465 685)"><ellipse cx="36.99023127555847" cy="21.825028955936432" rx="36.99023127555847" ry="21.825028955936432" fill="rgba(255,255,255,1)" stroke="#f6902a" stroke-width="1.5" stroke-linecap="round" stroke-linejoin="round"/></g><g transform="translate(468.4902312755585, 697.3250289559364) rotate(0, 33.5, 9.5)" width="67" height="19"><text text-decoration="none" x="2" fill="rgb(75, 75, 75)" font-size="10pt" font-family="Lato"  y="17">OrderDate</text><text text-decoration="none" x="65" fill="#4b4b4b" font-size="10pt" font-family="noto_regular"  y="17"></text></g></g><g id="2ewpjg7786"><g><path d="M 465,705 L 445,685" fill="none" stroke="#f6902a" stroke-width="1.5" stroke-linecap="round" stroke-linejoin="round"/></g></g><g id="162sw73s04"><g transform="translate(975 460)"><ellipse cx="57.98482894897461" cy="21.825028955936432" rx="57.98482894897461" ry="21.825028955936432" fill="rgba(255,255,255,1)" stroke="#f6902a" stroke-width="1.5" stroke-linecap="round" stroke-linejoin="round"/></g><g transform="translate(979.4848289489746, 472.32502895593643) rotate(0, 53.5, 9.5)" width="107" height="19"><text text-decoration="none" x="2" fill="rgb(75, 75, 75)" font-size="10pt" font-family="Lato"  y="17">TransportationID</text><text text-decoration="none" x="105" fill="#4b4b4b" font-size="10pt" font-family="noto_regular"  y="17"></text></g></g><g id="volgmwyphp"><g><path d="M 1035,505 L 1040,540" fill="none" stroke="#a0a0a0" stroke-width="1.5" stroke-linecap="round" stroke-linejoin="round"/></g></g><g id="8sbyp2xqyl"><g transform="translate(1000 680)"><ellipse cx="49.985042214393616" cy="21.825028955936432" rx="49.985042214393616" ry="21.825028955936432" fill="rgba(255,255,255,1)" stroke="#f6902a" stroke-width="1.5" stroke-linecap="round" stroke-linejoin="round"/></g><g transform="translate(996.4850422143936, 692.3250289559364) rotate(0, 53.5, 9.5)" width="107" height="19"><text text-decoration="none" x="4" fill="rgb(75, 75, 75)" font-size="10pt" font-family="Lato"  y="17">DistributionDate</text><text text-decoration="none" x="103" fill="#4b4b4b" font-size="10pt" font-family="noto_regular"  y="17"></text></g></g><g id="28zu06zoy3"><g><path d="M 1000,700 L 980,695" fill="none" stroke="#f6902a" stroke-width="1.5" stroke-linecap="round" stroke-linejoin="round"/></g></g><g id="1i4hxyxjoc"><g transform="translate(390 890)"><ellipse cx="36.99023127555847" cy="21.825028955936432" rx="36.99023127555847" ry="21.825028955936432" fill="rgba(255,255,255,1)" stroke="#f6902a" stroke-width="1.5" stroke-linecap="round" stroke-linejoin="round"/></g><g transform="translate(401.9902312755585, 902.3250289559364) rotate(0, 25, 9.5)" width="50" height="19"><text text-decoration="none" x="1" fill="rgb(75, 75, 75)" font-size="10pt" font-family="Lato"  y="17">OrderID</text><text text-decoration="none" x="49" fill="#4b4b4b" font-size="10pt" font-family="noto_regular"  y="17"></text></g></g><g id="9ac5fppiha"><g><path d="M 415,890 L 405,855" fill="none" stroke="#a0a0a0" stroke-width="1.5" stroke-linecap="round" stroke-linejoin="round"/></g></g><g id="ovgxer5nzh"><g transform="translate(1020 830)"><ellipse cx="50.98845958709717" cy="21.825028955936432" rx="50.98845958709717" ry="21.825028955936432" fill="rgba(255,255,255,1)" stroke="#f6902a" stroke-width="1.5" stroke-linecap="round" stroke-linejoin="round"/></g><g transform="translate(1020.4884595870972, 842.3250289559364) rotate(0, 50.5, 9.5)" width="101" height="19"><text text-decoration="none" x="3.5" fill="rgb(75, 75, 75)" font-size="10pt" font-family="Lato"  y="17">UseInstructions</text><text text-decoration="none" x="97.5" fill="#4b4b4b" font-size="10pt" font-family="noto_regular"  y="17"></text></g></g><g id="4scui1wlv3"><g><path d="M 1020,850 L 985,830" fill="none" stroke="#a0a0a0" stroke-width="1.5" stroke-linecap="round" stroke-linejoin="round"/></g></g><g id="1yasa5wclt"><g transform="translate(811 706)"><ellipse cx="27.500000596046448" cy="9.999996423721313" rx="27.500000596046448" ry="9.999996423721313" fill="rgba(255,255,255,1)" stroke="#f6902a" stroke-width="1.5" stroke-linecap="round" stroke-linejoin="round"/></g><g transform="translate(813.0000005960464, 706.4999964237213) rotate(0, 25.5, 9.5)" width="51" height="19"><text text-decoration="none" x="1" fill="rgb(75, 75, 75)" font-size="10pt" font-family="Lato"  y="17">Amount</text><text text-decoration="none" x="50" fill="#4b4b4b" font-size="10pt" font-family="noto_regular"  y="17"></text></g></g><g id="26wkjhw3ti"><g><path d="M 866,716 L 895,695" fill="none" stroke="#f6902a" stroke-width="1.5" stroke-linecap="round" stroke-linejoin="round"/></g></g></svg>